<?xml version="1.0" encoding="utf-8"?>
<svg id="svg2" viewBox="0 0 500 670" xmlns="http://www.w3.org/2000/svg" xmlns:xlink="http://www.w3.org/1999/xlink">
  <desc>Source: openclipart.org/detail/209545</desc>
  <defs>
    <linearGradient id="a">
      <stop stop-color="#faa" offset="0"/>
      <stop stop-color="#f55" offset="1"/>
    </linearGradient>
    <linearGradient id="f" x1="-276.06" x2="-236.91" y1="114.42" y2="113.32" gradientTransform="matrix(7.0559 -4.2798 4.1956 7.1976 1722 -1468.7)" gradientUnits="userSpaceOnUse">
      <stop stop-color="#a00" offset="0"/>
      <stop stop-color="#f55" offset="1"/>
    </linearGradient>
    <linearGradient id="e" x1="6120.2" x2="6952" gradientUnits="userSpaceOnUse">
      <stop stop-color="#4d4d4d" offset="0"/>
      <stop stop-color="#666" offset="1"/>
    </linearGradient>
    <linearGradient id="d" x1="-128.29" x2="-144.96" y1="301.82" y2="273.53" gradientTransform="matrix(8.209 0 0 8.3739 1716.2 -1480.6)" gradientUnits="userSpaceOnUse">
      <stop stop-color="#ccc" offset="0"/>
      <stop offset="1"/>
    </linearGradient>
    <linearGradient id="h" x1="-140.41" x2="-145.21" y1="265.45" y2="254.59" gradientTransform="matrix(8.4441 0 0 6.9643 1577.5 -1494.6)" gradientUnits="userSpaceOnUse" xlink:href="#a"/>
    <linearGradient id="g" x1="-140.41" x2="-145.21" y1="265.45" y2="254.59" gradientTransform="matrix(7.095 0 0 6.1903 1576.9 -879.14)" gradientUnits="userSpaceOnUse" xlink:href="#a"/>
    <radialGradient id="c" cx="-147.75" cy="181.31" r="34.438" gradientTransform="matrix(-10.948 5.323 -3.4952 -7.4805 -729.65 2406.4)" gradientUnits="userSpaceOnUse">
      <stop stop-color="#a00" offset="0"/>
      <stop stop-color="#a00" offset="0.0654"/>
      <stop stop-color="#f55" offset="0.4643"/>
      <stop stop-color="#800000" offset="0.7945"/>
      <stop stop-color="#ff2a2a" offset="0.8416"/>
      <stop stop-color="#faa" offset="1"/>
    </radialGradient>
    <radialGradient id="b" cx="-161.97" cy="249.39" r="36.711" gradientTransform="matrix(4.5554 7.1527 -9.2017 6.0982 3461.1 231.21)" gradientUnits="userSpaceOnUse">
      <stop stop-color="#a00" stop-opacity="0" offset="0"/>
      <stop stop-color="#a00" offset="0.2638"/>
      <stop stop-color="#f55" offset="0.5316"/>
      <stop stop-color="#800000" offset="0.8049"/>
      <stop stop-color="#ff2a2a" offset="0.9357"/>
      <stop stop-color="#faa" offset="1"/>
    </radialGradient>
  </defs>
  <g transform="matrix(0.532562, 0, 0, 0.577614, 45.449458, 26.245922)" style="">
    <defs/>
    <path d="m567.99 789.48 87.515 171.88c24.86 51.796 14.906 79.347 3.5694 83.718-9.8679 6.3618-44.503 23.994-79.096-51.56-7.3867-16.5-82.873-168.36-82.873-168.36 25.662-6.9826 47.842-22.659 70.885-35.678z" fill="url(#d)"/>
    <path d="m540.79 801.21 12.009-5.511c7.2882-3.3445 21.218 10.415 31.233 30.85l41.817 85.33c15.842 39.284 13.702 57.343 6.4782 60.658-6.2883 4.825-30.228-14.125-44.799-43.074l-41.817-85.33c-10.017-20.434-12.21-39.579-4.9214-42.924z" fill="url(#e)"/>
    <path d="m739.44 536.46c0 103.4-60.028 216.11-231.15 297.55-144.24 68.647-319.5-16.358-348.12-150.45-32.003-149.92 111.19-334.33 297.36-334.33s281.91 83.825 281.91 187.23z" fill="url(#b)"/>
    <path d="m266.34 344.56 88.311-53.566c53.594-32.508 113.41-30.084 134.11 5.4356l86.455 148.32c31.908 84.375 1.8874 184.69-86.938 222.54-82.544 35.277-170.56 22.4-194.85-51.611l-86.455-148.32c-20.705-35.52 5.7728-90.286 59.367-122.79z" fill="url(#f)"/>
    <path d="m551.73 167.18c0 89.192-56.385 186.41-217.13 256.66-135.48 59.212-300.11-14.11-327-129.78-30.061-129.32 105.9-265.43 279.32-288.38 119.19-15.777 264.81 72.305 264.81 161.5z" fill="url(#c)"/>
    <path d="m350.92 753.03c136.81 138.41 331.97-59.554 297.68-159.36-42.442 95.818-188.41 189.84-297.68 159.36z" fill="url(#g)"/>
    <path d="m142.86 326.07c111.4 102.85 342.81-40.844 302.01-153.12-50.513 107.8-160.65 181.83-302.01 153.12z" fill="url(#h)"/>
  </g>
</svg>